<mxfile host="app.diagrams.net" modified="2024-03-15T07:22:33.192Z" agent="Mozilla/5.0 (X11; Ubuntu; Linux x86_64; rv:123.0) Gecko/20100101 Firefox/123.0" version="24.0.5" etag="xqRgBXKojzH8zXM7X1q-" type="github">
  <diagram name="Page-1" id="qreUjN5F2P88OZPngTWF">
    <mxGraphModel>
      <root>
        <mxCell id="0" />
        <mxCell id="1" parent="0" />
      </root>
    </mxGraphModel>
  </diagram>
</mxfile>
